<?xml version="1.0" encoding="UTF-8"?>
<svg id="Layer_1" data-name="Layer 1" xmlns="http://www.w3.org/2000/svg" viewBox="0 0 867.28 147.45">
  <defs>
    <style>
      .cls-1 {
        fill: #fff;
      }
    </style>
  </defs>
  <g>
    <path class="cls-1" d="M161.3,80.37l10.68-60.51c1.09-6.71,2.05-11.77,2.74-16.7h46.14l4.65,25.6c2.88,16.15,6.02,33.95,7.67,45.04h.14c2.6-16.29,5.75-35.18,6.71-41.21,1.78-9.58,3.29-18.62,5.07-29.44h27.93c-.96,4.93-1.92,10.13-3.01,16.84l-10.54,59.69c-1.51,8.62-2.6,14.78-3.56,20.67h-46.14l-5.75-31.08c-2.87-16.15-4.65-28.48-6.57-39.98-2.46,15.47-5.89,36.01-6.85,41.62-1.64,9.58-3.29,18.48-5.06,29.43h-27.93c1.1-5.75,2.19-11.64,3.7-19.99Z"/>
    <path class="cls-1" d="M285.6,19.99c1.1-6.71,2.05-11.91,2.74-16.84h48.46c38.06,0,50.38,11.77,44.22,46.41l-.68,4.38c-6.16,34.64-17.93,46.41-55.99,46.41h-53.12c1.23-5.89,2.33-12.05,3.83-20.67l10.54-59.69ZM314.49,29.71l-7.8,44.08h19.99c15.06,0,19.17-3.97,22.31-21.77l.14-.55c3.15-17.66.41-21.77-14.65-21.77h-19.99Z"/>
    <path class="cls-1" d="M398.68,20.27c1.23-6.85,2.19-12.19,2.87-17.11h54.76c27.38,0,42.58,8.62,37.92,35.05-2.87,16.57-8.76,26.29-20.67,31.49,1.37,3.56,2.74,7.26,4.11,11.23,2.19,6.71,4.79,13.42,7.12,19.44h-31.49c-.96-3.56-2.46-8.08-4.11-12.73l-4.11-11.77h-25.46l-.68,3.83c-1.51,8.62-2.6,14.78-3.56,20.67h-30.94c1.1-5.75,2.19-11.91,3.7-20.54l10.54-59.55ZM427.97,28.62l-3.97,22.04h20.67c12.19,0,16.7-2.74,18.07-11.23,1.37-7.8-2.05-10.81-13.69-10.81h-21.08Z"/>
    <path class="cls-1" d="M499.02,53.95l.82-4.38c6.43-36.55,19.03-48.33,55.58-48.33,42.17,0,53.8,11.77,47.37,48.33l-.82,4.38c-6.44,36.42-19.17,48.33-55.86,48.33-42.03,0-53.53-11.91-47.09-48.33ZM570.76,52.03v-.55c3.42-19.3.82-23.14-15.74-23.14s-20.54,3.83-23.96,23.14v.55c-3.42,19.3-.68,23.27,15.74,23.27s20.54-3.97,23.96-23.27Z"/>
    <path class="cls-1" d="M641.67,69.96l-5.34,30.39h-32.31l5.34-30.39h32.31ZM653.45,3.15c-.55,2.46-12.6,49.56-14.51,59.01h-24.1c1.37-9.45,6.02-56.54,6.3-59.01h32.31Z"/>
    <path class="cls-1" d="M663.85,19.99c1.1-6.71,2.05-11.91,2.74-16.84h48.46c38.06,0,50.38,11.77,44.22,46.41l-.68,4.38c-6.16,34.64-17.93,46.41-55.99,46.41h-53.12c1.23-5.89,2.33-12.05,3.83-20.67l10.54-59.69ZM692.73,29.71l-7.8,44.08h19.99c15.06,0,19.17-3.97,22.31-21.77l.14-.55c3.15-17.66.41-21.77-14.65-21.77h-19.99Z"/>
    <path class="cls-1" d="M855.78,74.34l-4.65,26.01h-93.64l6.44-36.69,38.33-21.22c8.08-4.52,16.98-9.17,25.6-13.55h-15.2c-12.32,0-31.08,0-42.03.14l4.52-25.88h92.14l-6.43,36.69-38.2,20.12c-9.72,5.07-19.17,9.99-28.2,14.51h15.61c13.69,0,34.64,0,45.73-.14Z"/>
  </g>
  <path class="cls-1" d="M157.6,78.32c-.37-.02,0,0-.9,0-3.35,0-6.76,0-10.17-.01-1.08-7.59-2.15-15.25-3.44-23.01,4.15,0,8.3.02,12.27,0-.15.09.05-2.58,0-2.63-2.9-.03-5.9-.06-8.92-.08-1.91-11.03-3.69-21.52-5.21-30.57,4.88,0,9.77-.15,14.6-.06-.06-.63.27-2.21,0-2.63-3.39-.07-6.9-.06-10.43-.04-1.05-6.3-1.95-11.8-2.65-16.14h-68.52v2.74h17.01c-1.84,3.51-3.99,7.59-6.39,12.12-2.61-.03-5.22-.05-7.77,0-.99-.02-1.39-.08-1.93,0,.04.49-.05,2.26,0,2.63,1.22,0,2.44,0,3.67,0-2.41,4.55-5.02,9.48-7.8,14.7-4.94,0-9.81,0-12.59,0,.05-.16,0,1.4,0,1.31h11.89c-2.51,4.72-5.13,9.65-7.83,14.7h-17.19v2.7h11.96c-4.59,8.6-9.34,17.49-14.04,26.25-5.69,0-11.65-.02-14.27,0,.01-.02-.12,1.21,0,1.31l13.56.03c-3.06,5.7-6.08,11.33-9.02,16.77-1.49,0-2.99,0-4.47,0-1.38.03-3.66-.07-4.97,0-.03.13-.05,2.31,0,2.63,4.71-.03,9.59-.02,14.46,0-2.24,4.16-4.41,8.18-6.5,12.03-3.74.02-7.47.03-11.16.01.05.06-.07,1.41,0,1.31,3.44,0,6.94.01,10.43.01-2.19,4.04-4.27,7.87-6.21,11.43h-15.06c-.32-.53.19,3.34.07,3.15.22-.06,0,0,.83,0h6.81c-1.65,3.02-3.17,5.79-4.55,8.3-4.47.01-8.92.03-13.09.01-.1.04-.14,1.29,0,1.31,4.02,0,8.19,0,12.36,0-.87,1.58-1.69,3.05-2.43,4.38h36.68s8.05-16.1,8.05-16.1h5.63c2.52,0,5.03,0,7.5,0,.08.08.05-2.76,0-2.63-2.07.01-4.18.01-6.32.01l10.65-23.69.69-1.54h0l3.03-7.27,5.5-13.22-3.04.03s0,0,0-.01c1.98-4,3.95-8.02,5.91-11.99,1.87-3.8,3.72-7.56,5.55-11.27.64,0,1.27,0,1.91-.02h10.7v-2.59h0s0-.04,0-.04c-2.39-.02-4.92-.03-7.5-.03,3.97-8.06,7.78-15.76,11.24-22.7h3.59c0,.62.05,2.58.01,2.44.84,0,1.71,0,2.57,0,.47,3.63.96,7.46,1.49,11.44h-7.73c-.11-.05-.22,1.18,0,1.31h7.91c.33,2.47.66,4.98,1.01,7.54h-3.79c.64,4.72,1.3,9.58,1.98,14.46h-9.99v1.31h10.17c.45,3.25.9,6.5,1.35,9.75l.02.14-11.59.23-4.68,11.24c-1.9-.06-7.19.07-8.7.02.16.02-.19,2.05,0,1.97,1.71.03,5.57-.01,7.88,0h0s-1.16,0-1.16,0l-3.03,7.27h0l-.69,1.54h55.02l-.28-1.54h2.19c-1.07-6.01-1.97-12.03-2.85-18.09,3.31.02,6.6.03,9.79-.02.4.09.84-.13.9,0-.14.09.03-2.64,0-2.63Z"/>
</svg>